{"title":"Bon_Jovi_Private_Sessions_12-12-2010","uid":6035627,"size":2274744879,"categoryP":"video","categoryS":"tv_shows","magnet":"?xt=urn:btih:c5d584cbd471012136e9697e99b97063909e2c77&amp;dn=Bon_Jovi_Private_Sessions_12-12-2010&amp;tr=udp%3A%2F%2Ftracker.openbittorrent.com%3A80&amp;tr=udp%3A%2F%2Fopen.demonii.com%3A1337&amp;tr=udp%3A%2F%2Ftracker.coppersurfer.tk%3A6969&amp;tr=udp%3A%2F%2Fexodus.desync.com%3A6969","seeders":1,"leechers":1,"uploader":"thetorrentlord","files":18,"time":1292221617,"description":"This is from a SD broadcast. It includes the show in it's entirety and the individual songs and MP3s of all files.******************************************************************************************************************************************************************************************************************************Private_Sessions_BON_JOVI_20101212.avi\nFormat                           : AVI\nFormat/Info                      : Audio Video Interleave\nFormat profile                   : OpenDML\nFile size                        : 1.37 GiB\nDuration                         : 1h 26mn\nOverall bit rate                 : 2 274 Kbps\nMovie name                       : Private_Sessions_BON_JOVI_20101212.mpg\nDirector                         : created.with.SUPER(C).v2010.bld.37\nWriting application              : SUPER(C)   \n\nVideo\nID                               : 0\nFormat                           : MPEG-4 Visual\nFormat profile                   : Simple@L3\nFormat settings, BVOP            : No\nFormat settings, QPel            : No\nFormat settings, GMC             : No warppoints\nFormat settings, Matrix          : Default (H.263)\nCodec ID                         : XVID\nCodec ID/Hint                    : XviD\nDuration                         : 43mn 6s\nBit rate                         : 4 406 Kbps\nWidth                            : 624 pixels\nHeight                           : 352 pixels\nDisplay aspect ratio             : 16:9\nFrame rate                       : 23.976 fps\nColor space                      : YUV\nChroma subsampling               : 4:2:0\nBit depth                        : 8 bits\nScan type                        : Progressive\nBits/(Pixel*Frame)               : 0.837\nStream size                      : 1.33 GiB (97%)\nWriting library                  : XviD 1.1.2 (UTC 2006-11-01)\n\nAudio\nID                               : 1\nFormat                           : MPEG Audio\nFormat version                   : Version 2\nFormat profile                   : Layer 3\nMode                             : Joint stereo\nMode extension                   : MS Stereo\nCodec ID                         : 55\nCodec ID/Hint                    : MP3\nDuration                         : 1h 26mn\nBit rate mode                    : Constant\nBit rate                         : 128 Kbps\nChannel(s)                       : 2 channels\nSampling rate                    : 22.05 KHz\nStream size                      : 39.5 MiB (3%)\nAlignment                        : Aligned on interleaves\nInterleave, duration             : 26 ms (0.63 video frame)\nInterleave, preload duration     : 26 ms\nWriting library                  : LAME3.98\n\n","torrent":{"xt":"urn:btih:c5d584cbd471012136e9697e99b97063909e2c77","amp;dn":"Bon_Jovi_Private_Sessions_12-12-2010","amp;tr":["udp%3A%2F%2Ftracker.openbittorrent.com%3A80","udp%3A%2F%2Fopen.demonii.com%3A1337","udp%3A%2F%2Ftracker.coppersurfer.tk%3A6969","udp%3A%2F%2Fexodus.desync.com%3A6969"],"infoHash":"c5d584cbd471012136e9697e99b97063909e2c77","infoHashBuffer":{"type":"Buffer","data":[197,213,132,203,212,113,1,33,54,233,105,126,153,185,112,99,144,158,44,119]},"announce":[],"urlList":[]}}